<mxfile host="app.diagrams.net" modified="2022-06-13T11:31:46.363Z" agent="5.0 (Macintosh; Intel Mac OS X 10_15_7) AppleWebKit/537.36 (KHTML, like Gecko) Chrome/102.0.5005.61 Safari/537.36" etag="FuFfcUP0dXN7R_4yHVcq" version="20.0.1" type="github">
  <diagram name="Page-1" id="c7558073-3199-34d8-9f00-42111426c3f3">
    <mxGraphModel dx="1019" dy="549" grid="1" gridSize="10" guides="1" tooltips="1" connect="1" arrows="1" fold="1" page="1" pageScale="1" pageWidth="826" pageHeight="1169" background="none" math="0" shadow="0">
      <root>
        <mxCell id="0" />
        <mxCell id="1" parent="0" />
        <mxCell id="4P_xM4H7M9yueqmrd9iT-98" style="edgeStyle=orthogonalEdgeStyle;rounded=0;orthogonalLoop=1;jettySize=auto;html=1;exitX=1;exitY=0.5;exitDx=0;exitDy=0;entryX=0;entryY=0.5;entryDx=0;entryDy=0;" edge="1" parent="1" source="2" target="4P_xM4H7M9yueqmrd9iT-97">
          <mxGeometry relative="1" as="geometry" />
        </mxCell>
        <mxCell id="2" value="&lt;p style=&quot;margin: 0px; margin-top: 4px; text-align: center; text-decoration: underline;&quot;&gt;查询网关&lt;/p&gt;" style="verticalAlign=middle;align=center;overflow=fill;fontSize=12;fontFamily=Helvetica;html=1;rounded=1;fontStyle=1;strokeWidth=3;fillColor=#E6FFCC" parent="1" vertex="1">
          <mxGeometry x="220" y="239" width="110" height="84" as="geometry" />
        </mxCell>
        <mxCell id="4" value="业务端" style="whiteSpace=wrap;align=center;verticalAlign=middle;fontStyle=1;strokeWidth=3;fillColor=#FFFFCC" parent="1" vertex="1">
          <mxGeometry x="40" y="251" width="90" height="60" as="geometry" />
        </mxCell>
        <mxCell id="37" value="" style="edgeStyle=none;noEdgeStyle=1;strokeColor=#000000;strokeWidth=2" parent="1" source="4" target="2" edge="1">
          <mxGeometry width="100" height="100" relative="1" as="geometry">
            <mxPoint x="280" y="190" as="sourcePoint" />
            <mxPoint x="380" y="90" as="targetPoint" />
          </mxGeometry>
        </mxCell>
        <mxCell id="52" value="trpc" style="text;spacingTop=-5;align=center" parent="1" vertex="1">
          <mxGeometry x="165" y="251" width="30" height="20" as="geometry" />
        </mxCell>
        <mxCell id="4P_xM4H7M9yueqmrd9iT-100" style="edgeStyle=orthogonalEdgeStyle;rounded=0;orthogonalLoop=1;jettySize=auto;html=1;exitX=1;exitY=0.5;exitDx=0;exitDy=0;entryX=0;entryY=0.5;entryDx=0;entryDy=0;entryPerimeter=0;strokeColor=#000000;" edge="1" parent="1" source="4P_xM4H7M9yueqmrd9iT-97" target="4P_xM4H7M9yueqmrd9iT-99">
          <mxGeometry relative="1" as="geometry" />
        </mxCell>
        <mxCell id="4P_xM4H7M9yueqmrd9iT-106" style="edgeStyle=orthogonalEdgeStyle;rounded=0;orthogonalLoop=1;jettySize=auto;html=1;exitX=0.5;exitY=1;exitDx=0;exitDy=0;strokeColor=#000000;" edge="1" parent="1">
          <mxGeometry relative="1" as="geometry">
            <mxPoint x="413" y="311.5" as="sourcePoint" />
            <mxPoint x="300" y="356" as="targetPoint" />
            <Array as="points">
              <mxPoint x="413" y="336" />
              <mxPoint x="300" y="336" />
            </Array>
          </mxGeometry>
        </mxCell>
        <mxCell id="4P_xM4H7M9yueqmrd9iT-109" value="方案1" style="edgeLabel;html=1;align=center;verticalAlign=middle;resizable=0;points=[];" vertex="1" connectable="0" parent="4P_xM4H7M9yueqmrd9iT-106">
          <mxGeometry x="0.2102" y="1" relative="1" as="geometry">
            <mxPoint as="offset" />
          </mxGeometry>
        </mxCell>
        <mxCell id="4P_xM4H7M9yueqmrd9iT-107" style="edgeStyle=orthogonalEdgeStyle;rounded=0;orthogonalLoop=1;jettySize=auto;html=1;exitX=0.5;exitY=1;exitDx=0;exitDy=0;strokeColor=#000000;" edge="1" parent="1" source="4P_xM4H7M9yueqmrd9iT-97" target="4P_xM4H7M9yueqmrd9iT-104">
          <mxGeometry relative="1" as="geometry" />
        </mxCell>
        <mxCell id="4P_xM4H7M9yueqmrd9iT-111" value="方案2" style="edgeLabel;html=1;align=center;verticalAlign=middle;resizable=0;points=[];" vertex="1" connectable="0" parent="4P_xM4H7M9yueqmrd9iT-107">
          <mxGeometry x="0.295" relative="1" as="geometry">
            <mxPoint as="offset" />
          </mxGeometry>
        </mxCell>
        <mxCell id="4P_xM4H7M9yueqmrd9iT-108" style="edgeStyle=orthogonalEdgeStyle;rounded=0;orthogonalLoop=1;jettySize=auto;html=1;exitX=0.5;exitY=1;exitDx=0;exitDy=0;entryX=0.5;entryY=0;entryDx=0;entryDy=0;entryPerimeter=0;strokeColor=#000000;" edge="1" parent="1">
          <mxGeometry relative="1" as="geometry">
            <mxPoint x="413" y="335.5" as="sourcePoint" />
            <mxPoint x="542" y="379" as="targetPoint" />
          </mxGeometry>
        </mxCell>
        <mxCell id="4P_xM4H7M9yueqmrd9iT-110" value="方案3" style="edgeLabel;html=1;align=center;verticalAlign=middle;resizable=0;points=[];" vertex="1" connectable="0" parent="4P_xM4H7M9yueqmrd9iT-108">
          <mxGeometry x="-0.1884" relative="1" as="geometry">
            <mxPoint as="offset" />
          </mxGeometry>
        </mxCell>
        <mxCell id="4P_xM4H7M9yueqmrd9iT-97" value="集群&lt;br&gt;是否健康" style="rhombus;whiteSpace=wrap;html=1;fillColor=#FFFFCC;fontStyle=1;strokeWidth=3;" vertex="1" parent="1">
          <mxGeometry x="368" y="246.5" width="90" height="69" as="geometry" />
        </mxCell>
        <mxCell id="4P_xM4H7M9yueqmrd9iT-99" value="Solr库" style="shape=cylinder3;whiteSpace=wrap;html=1;boundedLbl=1;backgroundOutline=1;size=15;fillColor=#E6FFCC;strokeColor=default;rounded=1;fontStyle=1;strokeWidth=3;" vertex="1" parent="1">
          <mxGeometry x="517" y="241" width="60" height="80" as="geometry" />
        </mxCell>
        <mxCell id="4P_xM4H7M9yueqmrd9iT-101" value="健康" style="text;html=1;align=center;verticalAlign=middle;resizable=0;points=[];autosize=1;strokeColor=none;fillColor=none;" vertex="1" parent="1">
          <mxGeometry x="458" y="251" width="40" height="20" as="geometry" />
        </mxCell>
        <mxCell id="4P_xM4H7M9yueqmrd9iT-102" value="业务库" style="shape=cylinder3;whiteSpace=wrap;html=1;boundedLbl=1;backgroundOutline=1;size=15;fillColor=#FFFFCC;fontStyle=1;strokeWidth=3;" vertex="1" parent="1">
          <mxGeometry x="270" y="360" width="60" height="80" as="geometry" />
        </mxCell>
        <mxCell id="4P_xM4H7M9yueqmrd9iT-103" value="Solr备库库" style="shape=cylinder3;whiteSpace=wrap;html=1;boundedLbl=1;backgroundOutline=1;size=15;fillColor=#E6FFCC;rounded=1;fontStyle=1;strokeWidth=3;gradientColor=#ffffff;" vertex="1" parent="1">
          <mxGeometry x="512" y="359" width="60" height="80" as="geometry" />
        </mxCell>
        <mxCell id="4P_xM4H7M9yueqmrd9iT-104" value="专用业务库" style="shape=cylinder3;whiteSpace=wrap;html=1;boundedLbl=1;backgroundOutline=1;size=15;fillColor=#FFFFCC;fontStyle=1;strokeWidth=3;gradientColor=#ffffff;" vertex="1" parent="1">
          <mxGeometry x="383" y="370" width="60" height="80" as="geometry" />
        </mxCell>
        <mxCell id="4P_xM4H7M9yueqmrd9iT-112" value="DSL" style="ellipse;whiteSpace=wrap;html=1;gradientColor=#ffffff;" vertex="1" parent="1">
          <mxGeometry x="230" y="271" width="40" height="30" as="geometry" />
        </mxCell>
        <mxCell id="4P_xM4H7M9yueqmrd9iT-113" value="路由&lt;br&gt;发现" style="ellipse;whiteSpace=wrap;html=1;gradientColor=#ffffff;" vertex="1" parent="1">
          <mxGeometry x="274" y="270" width="50" height="30" as="geometry" />
        </mxCell>
      </root>
    </mxGraphModel>
  </diagram>
</mxfile>
